<svg id="Capa_1" data-name="Capa 1" xmlns="http://www.w3.org/2000/svg" viewBox="0 0 46.54 46.54"><defs><style>.cls-1{fill:#003979;}</style></defs><title>el del 5</title><path class="cls-1" d="M32.2,0H14.34A14.34,14.34,0,0,0,0,14.34V32.2A14.34,14.34,0,0,0,14.34,46.54H32.2A14.34,14.34,0,0,0,46.54,32.2V14.34A14.34,14.34,0,0,0,32.2,0Zm9.88,30.49A11.59,11.59,0,0,1,30.49,42.08H16.06A11.58,11.58,0,0,1,4.47,30.49V16.05A11.58,11.58,0,0,1,16.06,4.47H30.49A11.59,11.59,0,0,1,42.08,16.05Z"/><path class="cls-1" d="M23.9,11.09A12.26,12.26,0,1,0,36.16,23.35,12.25,12.25,0,0,0,23.9,11.09Zm0,19.64a7.38,7.38,0,1,1,7.37-7.38A7.38,7.38,0,0,1,23.9,30.73Z"/><path class="cls-1" d="M38.42,10.9a3.12,3.12,0,1,1-3.11-3.12A3.12,3.12,0,0,1,38.42,10.9Z"/></svg>