<svg id="Capa_1" data-name="Capa 1" xmlns="http://www.w3.org/2000/svg" viewBox="0 0 46.76 38"><defs><style>.cls-1{fill:#003979;}</style></defs><title>el del 5</title><path class="cls-1" d="M14.7,38C32.35,38,42,23.38,42,10.7q0-.62,0-1.23a19.68,19.68,0,0,0,4.79-5A19.54,19.54,0,0,1,41.25,6,9.66,9.66,0,0,0,45.47.7,19.2,19.2,0,0,1,39.38,3a9.6,9.6,0,0,0-16.6,6.56A9.94,9.94,0,0,0,23,11.78a27.26,27.26,0,0,1-19.78-10,9.61,9.61,0,0,0,3,12.8,9.52,9.52,0,0,1-4.35-1.2v.12a9.6,9.6,0,0,0,7.69,9.41,9.52,9.52,0,0,1-2.52.34,9.83,9.83,0,0,1-1.81-.18,9.62,9.62,0,0,0,9,6.67,19.25,19.25,0,0,1-11.91,4.1A19.29,19.29,0,0,1,0,33.69,27.16,27.16,0,0,0,14.7,38"/></svg>