<svg id="Capa_1" data-name="Capa 1" xmlns="http://www.w3.org/2000/svg" viewBox="0 0 52.71 56.57"><defs><style>.cls-1{fill:#003979;}</style></defs><title>el del 5</title><path class="cls-1" d="M9.57,11.05A28.42,28.42,0,0,0,12,12.71a33.45,33.45,0,0,0-1.13,3.2h3.4c.2-.57.39-1.15.61-1.69a27.12,27.12,0,0,0,4.91,1.69H33a27.05,27.05,0,0,0,5-1.72c.22.55.4,1.14.6,1.72h3.35a33.47,33.47,0,0,0-1.14-3.2,27.05,27.05,0,0,0,2.41-1.66A24.16,24.16,0,0,1,47,15.91h4.75a28.23,28.23,0,0,0-50.8,0H5.71A24.21,24.21,0,0,1,9.57,11.05ZM40.69,9c-.43.31-.87.62-1.32.9A25.31,25.31,0,0,0,37.53,7,23.13,23.13,0,0,1,40.69,9ZM36.6,11.35a24.36,24.36,0,0,1-4.41,1.56,38.73,38.73,0,0,0-1.9-8.26A15.78,15.78,0,0,1,36.6,11.35ZM26,4.21l.32,0,.32,0c.78,1.26,1.71,4.43,2.4,9.24a22.44,22.44,0,0,1-2.72.17,22.28,22.28,0,0,1-2.71-.17C24.33,8.64,25.27,5.47,26,4.21Zm-3.62.49a39.65,39.65,0,0,0-1.89,8.21,23.93,23.93,0,0,1-4.33-1.52A16,16,0,0,1,22.42,4.7ZM15.19,7a25.31,25.31,0,0,0-1.84,2.91c-.45-.28-.89-.59-1.32-.9A23.13,23.13,0,0,1,15.19,7Z"/><path class="cls-1" d="M43.16,45.52c-.78-.59-1.58-1.15-2.41-1.66.42-1,.8-2.09,1.14-3.2H38.54c-.19.58-.38,1.17-.6,1.72a27.31,27.31,0,0,0-5-1.72H19.76a27.39,27.39,0,0,0-4.91,1.69c-.22-.55-.41-1.12-.6-1.69H10.84c.34,1.11.71,2.18,1.13,3.2-.83.51-1.62,1.07-2.4,1.66a23.82,23.82,0,0,1-3.85-4.86H1a28.22,28.22,0,0,0,50.79,0H47A24.16,24.16,0,0,1,43.16,45.52ZM12,47.6c.43-.31.87-.62,1.32-.89a25.17,25.17,0,0,0,1.84,2.9A23.13,23.13,0,0,1,12,47.6Zm4.16-2.42a24.79,24.79,0,0,1,4.34-1.51,39.83,39.83,0,0,0,1.88,8.21A16.29,16.29,0,0,1,16.19,45.18Zm10.49,7.18-.32,0-.32,0c-.77-1.26-1.71-4.43-2.39-9.24A22.15,22.15,0,0,1,26.36,43a22.44,22.44,0,0,1,2.72.17C28.38,47.93,27.46,51.1,26.68,52.36Zm3.61-.44a38.73,38.73,0,0,0,1.9-8.26,24.36,24.36,0,0,1,4.41,1.56A15.72,15.72,0,0,1,30.29,51.92Zm7.24-2.31a26.21,26.21,0,0,0,1.84-2.91c.45.28.89.59,1.32.9A23.13,23.13,0,0,1,37.53,49.61Z"/><path class="cls-1" d="M6.55,33.91l1.13-4a28.15,28.15,0,0,0,.73-3.49h.05c.23,1.38.43,2.39.71,3.49l1.06,4h3.28L17,22.67H13.54l-1,4.46c-.25,1.29-.48,2.55-.64,3.84h0c-.23-1.29-.53-2.55-.82-3.82L9.93,22.67H7.17L6,27.29c-.28,1.1-.6,2.39-.83,3.68H5.1c-.18-1.29-.41-2.53-.64-3.71l-.9-4.59H0L3.26,33.9H6.55Z"/><path class="cls-1" d="M30.45,27.13c-.26,1.28-.48,2.55-.64,3.83h0c-.23-1.28-.53-2.54-.82-3.81L27.8,22.67H25.05l-1.2,4.62c-.27,1.1-.6,2.39-.83,3.67h0c-.19-1.28-.42-2.53-.65-3.7l-.89-4.6H17.88L21.14,33.9h3.29L25.55,30a26.49,26.49,0,0,0,.74-3.5h0c.23,1.38.44,2.4.72,3.5L28.1,33.9h3.29l3.44-11.24H31.41Z"/><path class="cls-1" d="M48.33,27.13c-.25,1.28-.48,2.55-.64,3.83h0c-.23-1.28-.53-2.54-.83-3.81l-1.13-4.48H42.93l-1.2,4.62c-.27,1.1-.6,2.39-.83,3.67h0c-.18-1.28-.41-2.53-.64-3.7l-.9-4.6H35.76L39,33.9h3.29L43.44,30a26.61,26.61,0,0,0,.73-3.5h0c.23,1.38.44,2.4.72,3.5l1,3.95h3.29l3.44-11.24H49.29Z"/></svg>